#N canvas 209 115 1011 668 12;
#X obj 135 201 noise~;
#N canvas 0 22 450 278 (subpatch) 0;
#X array buffer 128 float 1;
#A 0 0 0 0 0 0 0 1 0 1 1 0 0 1 1 1 0 0 0 1 1 0 1 0 1 0 0 0 1 0 1 1 0 0 0 0 0 0 0 0 1 1 0 1 0 0 0 0 0 1 0 1 0 1 0 0 0 1 0 1 1 1 0 1 0 0 1 1 0 1 0 1 1 0 0 0 1 0 0 0 0 1 0 0 1 1 0 0 1 0 1 0 0 0 1 0 1 0 1 1 0 0 0 0 0 0 1 1 1 1 0 1 1 1 0 0 1 1 1 1 0 0 0 1 1 0 1 0 0;
#X coords 0 1.5 127 -0.5 529 153 1 0 1;
#X restore 55 449 graph;
#X obj 54 386 tabwrite~ buffer;
#X obj 341 202 nbx 5 17 0 100 0 0 empty empty empty 0 -10 0 12 #fcfcfc #000000 #000000 0 256;
#X obj 341 262 * 0.01;
#X text 51 14 Stochastic Signal Density Modulation;
#X obj 54 305 metro 100;
#X obj 53 201 loadbang;
#X text 135 173 Noise source;
#X obj 199 346 *~ 0.5;
#X text 338 177 Threshold (0 \, 100) (aka Signal Density);
#X text 400 261 Rescale to (0 \, 1);
#X obj 135 305 expr~ if($v1 < $f2 \, 1 \, 0);
#X obj 199 386 dac~ 1 2;
#X text 252 345 Scale output to something reasonable;
#X text 50 39 Each random sample value is compared to the threshold. If it is lower \, then output is set to high (in this case 0.5) \, otherwise it is set to low (in this case 0). This generates a random train of impulses. For more explanation \, see: https://en.wikipedia.org/wiki/Stochastic_Signal_Density_Modulation;
#X text 520 25 W K Werkowicz 2023;
#X connect 0 0 12 0;
#X connect 3 0 4 0;
#X connect 4 0 12 1;
#X connect 6 0 2 0;
#X connect 7 0 6 0;
#X connect 9 0 13 0;
#X connect 9 0 13 1;
#X connect 12 0 2 0;
#X connect 12 0 9 0;
