#N canvas 466 174 559 392 10;
#X obj 109 310 dac~ 1 2;
#X obj 109 248 osc~ 440;
#X text 182 132 adc 1 and 2 are audio BELA's analogue INPUTS are from 3 to 10 !!!;
#X obj 110 203 *~ 880;
#X obj 109 269 *~;
#X text 150 62 Theremin template xname 2023;
#X obj 110 158 adc~ 7 3;
#X text 200 204 Analog In 0 = Phase;
#X text 203 244 Analog In 4 = Gain;
#X text 134 5 _____ _____ _____ _____ _____;
#X text 134 18 | __ | __| __ | | | __|;
#X text 135 32 | -| __| __ -| | |__ |;
#X text 135 45 |__|__|_____|_____|_____|_____|;
#X connect 1 0 4 0;
#X connect 3 0 1 0;
#X connect 4 0 0 1;
#X connect 4 0 0 0;
#X connect 6 0 3 0;
#X connect 6 1 4 1;
