#N canvas 122 106 1267 757 12;
#N canvas 904 184 450 300 derivative 0;
#X obj 48 115 -, f 4;
#X obj 50 33 inlet;
#X obj 75 77 pipe 50;
#X obj 48 155 outlet;
#X text 151 6 To get the derivative \, simply subtract the previous from the current value.;
#X text 136 72 Here \, in respect to the value from 50ms ago;
#X connect 0 0 3 0;
#X connect 1 0 0 0;
#X connect 1 0 2 0;
#X connect 2 0 0 1;
#X restore 509 311 pd derivative;
#X obj 610 130 loadbang;
#X obj 73 281 snapshot~;
#X obj 74 533 print ANALOG;
#X obj 72 191 lop~ 10;
#X obj 409 188 lop~ 10;
#X obj 407 278 snapshot~;
#N canvas 499 190 962 486 normalize 0;
#X obj 498 119 snapshot~;
#X obj 497 72 max~;
#X obj 235 73 min~;
#X obj 234 117 snapshot~;
#X obj 41 236 outlet~;
#X obj 40 13 inlet~;
#X obj 501 228 outlet;
#X obj 133 12 loadbang;
#X obj 134 73 metro 50;
#X obj 236 232 outlet;
#X obj 462 172 -;
#X obj 41 202 expr~ ($v1 - $f2) / $f3;
#X text 534 67 Maximum value received so far;
#X text 47 179 Scale to 0-1;
#X text 290 219 Output minimum value received so far;
#X text 551 218 Output maximum value received so far;
#X connect 0 0 1 1;
#X connect 0 0 6 0;
#X connect 0 0 10 0;
#X connect 1 0 0 0;
#X connect 2 0 3 0;
#X connect 3 0 2 1;
#X connect 3 0 9 0;
#X connect 3 0 10 1;
#X connect 3 0 11 1;
#X connect 5 0 1 0;
#X connect 5 0 2 0;
#X connect 5 0 11 0;
#X connect 7 0 8 0;
#X connect 8 0 3 0;
#X connect 8 0 0 0;
#X connect 10 0 11 2;
#X connect 11 0 4 0;
#X restore 73 248 pd normalize;
#N canvas 797 190 450 300 normalize 0;
#X obj 498 119 snapshot~;
#X obj 497 72 max~;
#X obj 235 73 min~;
#X obj 234 117 snapshot~;
#X obj 41 236 outlet~;
#X obj 40 13 inlet~;
#X obj 501 228 outlet;
#X obj 133 12 loadbang;
#X obj 134 73 metro 50;
#X obj 236 232 outlet;
#X obj 462 172 -;
#X obj 41 202 expr~ ($v1 - $f2) / $f3;
#X text 534 67 Maximum value received so far;
#X text 47 179 Scale to 0-1;
#X text 290 219 Output minimum value received so far;
#X text 551 218 Output maximum value received so far;
#X connect 0 0 1 1;
#X connect 0 0 6 0;
#X connect 0 0 10 0;
#X connect 1 0 0 0;
#X connect 2 0 3 0;
#X connect 3 0 2 1;
#X connect 3 0 9 0;
#X connect 3 0 10 1;
#X connect 3 0 11 1;
#X connect 5 0 1 0;
#X connect 5 0 2 0;
#X connect 5 0 11 0;
#X connect 7 0 8 0;
#X connect 8 0 3 0;
#X connect 8 0 0 0;
#X connect 10 0 11 2;
#X connect 11 0 4 0;
#X restore 407 245 pd normalize;
#X obj 332 533 dac~ 27 28 29 30;
#X obj 508 278 send~ a4;
#X obj 332 460 receive~ a1;
#X obj 368 493 receive~ a4;
#X obj 610 191 s tick;
#X obj 164 281 s~ a1;
#X obj 73 314 s s1;
#X obj 407 311 s s4;
#X obj 73 430 r s1;
#X obj 112 430 r s4;
#X obj 155 430 r d4;
#X obj 510 356 s d4;
#X obj 464 460 r d4;
#X obj 464 493 sig~;
#X obj 20 248 r tick;
#X obj 351 245 r tick;
#X text 135 190 Smoothing;
#X text 468 187 Smoothing;
#X obj 610 164 metro 500;
#X obj 72 154 adc~ 3;
#X obj 409 151 adc~ 7;
#X obj 74 485 pack 0 0 0, f 12;
#X text 71 369 Print to the console: post-processed phase \, magnitude \, magnitude derivative values.;
#X text 328 422 Display the same values using BELA scope.;
#X text 72 88 To get input from BELA's PIN0 you need to use adc~ offset by 3;
#X text 72 127 Phase (PIN0);
#X text 408 124 Magnitude (PIN4);
#X text 417 223 Adaptive normalization to 0-1 range;
#X text 79 227 Adaptive normalization to 0-1 range;
#X text 612 310 Calculate derivative with 50ms delta;
#X text 663 32 W K Werkowicz 2023;
#X text 73 22 This patch demonstrates basic post-processing of input voltage and logging/debugging when using PD to program REBUS.;
#X connect 0 0 20 0;
#X connect 1 0 27 0;
#X connect 2 0 15 0;
#X connect 4 0 7 0;
#X connect 4 0 14 0;
#X connect 5 0 8 0;
#X connect 5 0 10 0;
#X connect 6 0 0 0;
#X connect 6 0 16 0;
#X connect 7 0 2 0;
#X connect 8 0 6 0;
#X connect 11 0 9 0;
#X connect 12 0 9 1;
#X connect 17 0 30 0;
#X connect 18 0 30 1;
#X connect 19 0 30 2;
#X connect 21 0 22 0;
#X connect 22 0 9 2;
#X connect 23 0 2 0;
#X connect 24 0 6 0;
#X connect 27 0 13 0;
#X connect 28 0 4 0;
#X connect 29 0 5 0;
#X connect 30 0 3 0;
